<svg width="145" height="41" viewBox="0 0 145 41" fill="none" xmlns="http://www.w3.org/2000/svg">
<path d="M0 0V21.3078L29.8309 0H0ZM1.29812 1.27898H25.8327L1.29812 18.801V1.27898Z" fill="#C8B288"/>
<path d="M19.6938 38.7514H11.1916V20.2722H31.5795V18.8263H9.74568L0.289185 25.7379V40.1974H32.3024V29.7577L19.6938 38.7514ZM1.73513 26.4898L9.74568 20.6193V38.7514H1.73513V26.4898ZM22.2097 38.7514L30.8565 32.6206V38.7514H22.2097Z" fill="#C8B288"/>
<path d="M47.1061 7.57382V11.1126H51.8794V13.3759H47.1061V17.1204H52.4967V19.4659H44.2668V5.26947H52.4967V7.57382H47.1061Z" fill="#C8B288"/>
<path d="M55.336 8.60254C55.9532 7.49151 56.8173 6.62738 57.9284 6.01014C58.9982 5.3929 60.2327 5.10486 61.5906 5.10486C63.1955 5.10486 64.5534 5.51635 65.7467 6.33933C66.94 7.16232 67.763 8.27335 68.2568 9.71357H64.9649C64.6357 9.05518 64.183 8.52024 63.607 8.19105C63.0309 7.86185 62.3313 7.69726 61.5495 7.69726C60.7265 7.69726 59.9858 7.903 59.3274 8.27334C58.669 8.64369 58.1753 9.21978 57.8049 9.91931C57.4346 10.6188 57.27 11.4418 57.27 12.3883C57.27 13.3347 57.4346 14.1577 57.8049 14.8572C58.1753 15.5567 58.669 16.1328 59.3274 16.5032C59.9858 16.8735 60.6854 17.0793 61.5495 17.0793C62.3313 17.0793 62.9897 16.9147 63.607 16.5443C64.183 16.2151 64.6357 15.6802 64.9649 15.0218H68.2568C67.763 16.462 66.94 17.6142 65.7879 18.396C64.5945 19.219 63.1955 19.5894 61.6318 19.5894C60.2739 19.5894 59.0394 19.3013 57.9695 18.6841C56.8585 18.0668 56.0355 17.2027 55.3771 16.1328C54.7187 15.063 54.4307 13.7873 54.4307 12.3883C54.3895 10.948 54.7187 9.71356 55.336 8.60254Z" fill="#C8B288"/>
<path d="M82.4533 5.26947V19.4659H79.614V13.417H73.5239V19.4659H70.6846V5.26947H73.5239V11.1126H79.614V5.26947H82.4533Z" fill="#C8B288"/>
<path d="M88.1729 18.643C87.0619 18.0257 86.1978 17.1616 85.5394 16.0506C84.881 14.9395 84.5518 13.7051 84.5518 12.306C84.5518 10.9069 84.881 9.67244 85.5394 8.56141C86.1978 7.45038 87.0619 6.58625 88.1729 5.96901C89.284 5.35178 90.5184 5.02258 91.8352 5.02258C93.1931 5.02258 94.3865 5.35178 95.4975 5.96901C96.6085 6.58625 97.4727 7.45038 98.131 8.56141C98.7894 9.67244 99.0775 10.9069 99.0775 12.306C99.0775 13.7051 98.7483 14.9395 98.131 16.0506C97.4727 17.1616 96.6085 18.0257 95.4975 18.643C94.3865 19.2602 93.152 19.5894 91.8352 19.5894C90.5184 19.5894 89.284 19.3013 88.1729 18.643ZM94.0984 16.462C94.7568 16.0917 95.2506 15.5156 95.6209 14.8161C95.9913 14.1165 96.1559 13.2524 96.1559 12.306C96.1559 11.3596 95.9913 10.5366 95.6209 9.83703C95.2506 9.1375 94.7568 8.56141 94.0984 8.19107C93.44 7.82072 92.6994 7.61498 91.8352 7.61498C90.9711 7.61498 90.2304 7.82072 89.572 8.19107C88.9136 8.56141 88.4198 9.09635 88.0495 9.83703C87.6792 10.5366 87.5146 11.3596 87.5146 12.306C87.5146 13.2524 87.6792 14.0754 88.0495 14.8161C88.4198 15.5156 88.9136 16.0917 89.572 16.462C90.2304 16.8324 90.9711 17.0381 91.8352 17.0381C92.6994 17.0381 93.44 16.8735 94.0984 16.462Z" fill="#C8B288"/>
<path d="M47.1061 25.8362V40.0327H44.2668V25.8362H47.1061Z" fill="#C8B288"/>
<path d="M62.0432 40.0327H59.2039L52.7435 30.2804V40.0327H49.9042V25.8362H52.7435L59.2039 35.5886V25.8362H62.0432V40.0327Z" fill="#C8B288"/>
<path d="M74.5114 25.8362V28.1406H70.7257V40.0327H67.8864V28.1406H64.1007V25.8362H74.5114Z" fill="#C8B288"/>
<path d="M79.4493 28.1406V31.6794H84.2226V33.9426H79.4493V37.6872H84.8398V39.9916H76.61V25.7951H84.8398V28.0995H79.4493V28.1406Z" fill="#C8B288"/>
<path d="M94.7157 40.0327L91.5884 34.5187H90.2305V40.0327H87.3912V25.8362H92.6994C93.8104 25.8362 94.7157 26.042 95.4976 26.4123C96.2794 26.7827 96.8555 27.3176 97.2258 27.976C97.5962 28.6344 97.8019 29.3751 97.8019 30.1981C97.8019 31.1445 97.5139 31.9675 96.9789 32.7082C96.444 33.4488 95.621 33.9838 94.5511 34.2718L97.9254 40.0327H94.7157ZM90.2305 32.379H92.6171C93.399 32.379 93.975 32.1732 94.3454 31.8029C94.7157 31.4325 94.9215 30.8976 94.9215 30.2392C94.9215 29.5808 94.7157 29.087 94.3454 28.7167C93.975 28.3463 93.399 28.1817 92.6171 28.1817H90.2305V32.379Z" fill="#C8B288"/>
<path d="M103.275 25.8362V40.0327H100.435V25.8362H103.275Z" fill="#C8B288"/>
<path d="M108.994 39.2509C107.883 38.6336 107.019 37.7695 106.361 36.6585C105.702 35.5474 105.373 34.313 105.373 32.9139C105.373 31.5148 105.702 30.2803 106.361 29.1693C107.019 28.0583 107.883 27.1942 108.994 26.5769C110.105 25.9597 111.34 25.6305 112.657 25.6305C114.015 25.6305 115.208 25.9597 116.319 26.5769C117.43 27.1942 118.294 28.0583 118.953 29.1693C119.611 30.2803 119.899 31.5148 119.899 32.9139C119.899 34.313 119.57 35.5474 118.953 36.6585C118.294 37.7695 117.43 38.6336 116.319 39.2509C115.208 39.8681 113.973 40.1973 112.657 40.1973C111.34 40.1561 110.105 39.8681 108.994 39.2509ZM114.92 37.07C115.578 36.6996 116.072 36.1235 116.442 35.424C116.813 34.7245 116.977 33.8603 116.977 32.9139C116.977 31.9675 116.813 31.1445 116.442 30.4449C116.072 29.7454 115.578 29.1693 114.92 28.799C114.262 28.4286 113.521 28.2229 112.657 28.2229C111.793 28.2229 111.052 28.4286 110.393 28.799C109.735 29.1693 109.241 29.7043 108.871 30.4449C108.501 31.1445 108.336 31.9675 108.336 32.9139C108.336 33.8603 108.501 34.6833 108.871 35.424C109.241 36.1235 109.735 36.6996 110.393 37.07C111.052 37.4403 111.793 37.646 112.657 37.646C113.521 37.646 114.262 37.4403 114.92 37.07Z" fill="#C8B288"/>
<path d="M129.322 40.0327L126.195 34.5187H124.837V40.0327H121.998V25.8362H127.306C128.417 25.8362 129.322 26.042 130.104 26.4123C130.886 26.7827 131.462 27.3176 131.832 27.976C132.203 28.6344 132.408 29.3751 132.408 30.1981C132.408 31.1445 132.12 31.9675 131.585 32.7082C131.05 33.4488 130.227 33.9838 129.158 34.2718L132.532 40.0327H129.322ZM124.878 32.379H127.265C128.046 32.379 128.623 32.1732 128.993 31.8029C129.363 31.4325 129.569 30.8976 129.569 30.2392C129.569 29.5808 129.363 29.087 128.993 28.7167C128.623 28.3463 128.046 28.1817 127.265 28.1817H124.878V32.379Z" fill="#C8B288"/>
<path d="M137.264 39.6624C136.482 39.3332 135.865 38.8394 135.371 38.181C134.918 37.5638 134.672 36.7819 134.672 35.9178H137.717C137.758 36.4939 137.963 36.9465 138.334 37.3169C138.704 37.6461 139.198 37.8107 139.856 37.8107C140.515 37.8107 141.05 37.6461 141.42 37.3169C141.79 36.9877 141.996 36.5762 141.996 36.0824C141.996 35.6709 141.873 35.3006 141.626 35.0537C141.379 34.7656 141.05 34.5599 140.679 34.3953C140.309 34.2307 139.774 34.0661 139.074 33.8603C138.169 33.5723 137.387 33.3254 136.811 33.0374C136.235 32.7905 135.741 32.379 135.33 31.844C134.918 31.3091 134.713 30.6096 134.713 29.7043C134.713 28.8813 134.918 28.1406 135.33 27.5234C135.741 26.9061 136.359 26.4123 137.099 26.0831C137.84 25.754 138.745 25.5894 139.692 25.5894C141.173 25.5894 142.325 25.9597 143.272 26.6592C144.177 27.3588 144.671 28.3463 144.794 29.622H141.667C141.626 29.1282 141.42 28.7167 141.05 28.4286C140.679 28.0995 140.144 27.9349 139.527 27.9349C138.992 27.9349 138.54 28.0583 138.21 28.3463C137.881 28.6344 137.717 29.0459 137.717 29.5808C137.717 29.9512 137.84 30.2804 138.087 30.5273C138.334 30.7741 138.663 30.9799 139.033 31.1445C139.404 31.3091 139.939 31.4737 140.597 31.6794C141.502 31.9675 142.284 32.2144 142.86 32.5024C143.436 32.7905 143.93 33.1608 144.383 33.7369C144.794 34.2718 145 34.9714 145 35.8766C145 36.6173 144.794 37.358 144.424 37.9753C144.054 38.5925 143.436 39.1274 142.696 39.5389C141.955 39.9093 141.05 40.115 139.98 40.115C138.951 40.1562 138.046 39.9916 137.264 39.6624Z" fill="#C8B288"/>
</svg>
