<svg width="48" height="48" viewBox="0 0 48 48" fill="none" xmlns="http://www.w3.org/2000/svg">
<path d="M31.2842 8.65086H16.4099C16.0913 8.65086 15.8337 8.39328 15.8337 8.0747C15.8337 7.75611 16.0913 7.49854 16.4099 7.49854H31.2775C31.5961 7.49854 31.8537 7.75611 31.8537 8.0747C31.8605 8.39328 31.6029 8.65086 31.2842 8.65086Z" fill="#C8B288"/>
<path d="M31.2842 12.9211H16.4099C16.0913 12.9211 15.8337 12.6635 15.8337 12.345C15.8337 12.0264 16.0913 11.7688 16.4099 11.7688H31.2775C31.5961 11.7688 31.8537 12.0264 31.8537 12.345C31.8605 12.6635 31.6029 12.9211 31.2842 12.9211Z" fill="#C8B288"/>
<path d="M35.1553 4.0686H12.5388C11.7999 4.0686 11.1965 4.67188 11.1965 5.41072V15.9375C11.1965 16.6764 11.7999 17.2797 12.5388 17.2797H29.3453L31.7113 20.3977C31.874 20.6146 32.1249 20.7366 32.3893 20.7366C32.4503 20.7366 32.5113 20.7299 32.5791 20.7163C32.9045 20.6417 33.1554 20.4045 33.2299 20.0791L34.0164 17.2797H35.1553C35.8943 17.2797 36.4977 16.6764 36.4977 15.9375V5.41072C36.4977 4.67188 35.8943 4.0686 35.1553 4.0686ZM35.3452 15.9443C35.3452 16.0528 35.257 16.1341 35.1553 16.1341H33.8469H33.6774C33.4876 16.1341 33.3181 16.2629 33.2706 16.4459L33.0333 17.2864L32.3622 19.686L30.5385 17.2864L29.7249 16.2155C29.6843 16.168 29.63 16.1341 29.5622 16.1341H12.5388C12.4303 16.1341 12.349 16.046 12.349 15.9443V5.4175C12.349 5.30905 12.4371 5.22771 12.5388 5.22771H35.1553C35.2638 5.22771 35.3452 5.31583 35.3452 5.4175V15.9443Z" fill="#C8B288"/>
<path d="M15.5557 30.1382C12.532 30.1382 10.0779 27.6844 10.0779 24.6613C10.0779 21.6381 12.532 19.1843 15.5557 19.1843C18.5794 19.1843 21.0336 21.6381 21.0336 24.6613C21.0336 27.6844 18.5794 30.1382 15.5557 30.1382ZM15.5557 20.2689C13.1354 20.2689 11.1626 22.2414 11.1626 24.6613C11.1626 27.0811 13.1354 29.0536 15.5557 29.0536C17.976 29.0536 19.9489 27.0811 19.9489 24.6613C19.9489 22.2414 17.976 20.2689 15.5557 20.2689Z" fill="#C8B288"/>
<path d="M32.5045 34.6526C29.4809 34.6526 27.0267 32.1988 27.0267 29.1757C27.0267 26.1525 29.4809 23.6987 32.5045 23.6987C35.5282 23.6987 37.9824 26.1525 37.9824 29.1757C37.9824 32.1988 35.5282 34.6526 32.5045 34.6526ZM32.5045 24.7833C30.0843 24.7833 28.1114 26.7558 28.1114 29.1757C28.1114 31.5955 30.0843 33.5681 32.5045 33.5681C34.9248 33.5681 36.8977 31.5955 36.8977 29.1757C36.8977 26.7558 34.9248 24.7833 32.5045 24.7833Z" fill="#C8B288"/>
<path d="M14.4236 30.728H16.6812L16.3015 32.9852H14.81L14.4236 30.728Z" fill="#C8B288"/>
<path d="M42.6129 44H42.3213C42.1044 44 41.9213 43.8238 41.9213 43.6001C41.9213 39.5941 38.6739 36.3472 34.6672 36.3472H30.2877C26.281 36.3472 23.0336 39.5941 23.0336 43.6001C23.0336 43.817 22.8573 44 22.6336 44H22.3421C22.1251 44 21.9421 43.8238 21.9421 43.6001C21.9421 38.9908 25.6776 35.2627 30.2809 35.2627H34.6605C39.2705 35.2627 42.9993 38.9976 42.9993 43.6001C43.0128 43.8238 42.8298 44 42.6129 44Z" fill="#C8B288"/>
<path d="M13.3388 30.7483C8.72874 30.7483 5 34.4832 5 39.0857C5 39.3026 5.17627 39.4856 5.39999 39.4856H5.69151C5.90846 39.4856 6.0915 39.3094 6.0915 39.0857C6.0915 35.0797 9.3389 31.8328 13.3456 31.8328H13.7253C13.8202 31.8328 13.888 31.7515 13.8744 31.6566L13.7388 30.8771C13.7253 30.8025 13.6642 30.7483 13.5897 30.7483H13.3388Z" fill="#C8B288"/>
<path d="M25.203 35.405C23.8403 32.6462 20.9997 30.7483 17.7184 30.7483H17.6777C17.6099 30.7483 17.5557 30.7957 17.5421 30.8635L17.4065 31.6702C17.393 31.7515 17.454 31.8328 17.5421 31.8328H17.7252C20.62 31.8328 23.1149 33.5274 24.281 35.9744C24.3284 36.0761 24.464 36.11 24.5522 36.0422C24.742 35.8999 24.9386 35.7643 25.1352 35.6355C25.2166 35.5881 25.2437 35.4864 25.203 35.405Z" fill="#C8B288"/>
<path d="M14.4236 39.1806H16.6812L16.3015 33.6223H14.81L14.4236 39.1806Z" fill="#C8B288"/>
</svg>
