<svg width="48" height="48" viewBox="0 0 48 48" fill="none" xmlns="http://www.w3.org/2000/svg">
<g clip-path="url(#clip0_521_1178)">
<path d="M45.3376 40.0611C45.2473 39.4545 44.9161 38.9389 44.4344 38.5749L25.8882 25.1078C25.6473 24.9258 25.2258 24.7135 25.2258 24.6831L19.9269 22.5296C19.6258 22.3779 19.2946 22.4083 19.0839 22.6206C18.9333 22.7419 18.7527 23.0149 18.9032 23.5609L18.9333 23.6519L19.1441 23.9248L22.6667 28.2016C22.8172 28.4442 22.9978 28.6262 23.2387 28.8082L41.7849 42.2753C42.086 42.4876 42.4172 42.6393 42.7785 42.6696C43.6215 42.7909 44.4344 42.427 44.9161 41.7597C45.3075 41.244 45.4581 40.6677 45.3376 40.0611ZM44.1032 41.153C43.7118 41.699 42.929 41.8203 42.3871 41.426L23.8409 27.9589C23.7806 27.9286 23.7204 27.8679 23.6903 27.8073C23.6301 27.7466 23.6 27.7163 23.5699 27.6556L22.6366 26.503L20.4688 23.8642L23.5097 25.1078L24.8344 25.6537H24.8645C25.0151 25.7144 25.1656 25.8054 25.3462 25.9267L43.8925 39.3938C44.1634 39.5758 44.3441 39.8791 44.3742 40.2128C44.3742 40.5464 44.314 40.8801 44.1032 41.153Z" fill="#C8B288"/>
<path d="M30.2839 35.7237C30.0731 35.7237 29.8925 35.5417 29.8925 35.3294V34.4498L28.6882 33.5702V35.7237H20.8V27.5343C20.8 26.6243 20.0774 25.9267 19.2043 25.9267H8.06452V19.4661H19.8064C20.0172 19.4661 20.1978 19.2841 20.1978 19.0718V18.7078C20.1978 18.4955 20.0172 18.3135 19.8064 18.3135H18.572C18.3613 18.3135 18.1806 18.1316 18.1806 17.9192V15.2804C18.1806 15.0681 18 14.8861 17.7892 14.8861H17.428C17.2172 14.8861 17.0366 15.0681 17.0366 15.2804V17.9192C17.0366 18.1316 16.8559 18.3135 16.6452 18.3135H13.8151C13.6043 18.3135 13.4237 18.1316 13.4237 17.9192V15.2804C13.4237 15.0681 13.243 14.8861 13.0323 14.8861H12.671C12.4602 14.8861 12.2796 15.0681 12.2796 15.2804V17.9192C12.2796 18.1316 12.0989 18.3135 11.8882 18.3135H8.06452V11.8226H30.7054V20.0424C30.7054 20.2547 30.886 20.4367 31.0968 20.4367H31.4581C31.6688 20.4367 31.8495 20.2547 31.8495 20.0424V11.8226H41.3935V25.8964H30.6753C29.9527 25.8964 29.5613 26.139 29.2 26.685L30.1032 27.3826C30.2237 27.1096 30.3742 27.0793 30.6753 27.0793H41.0323C41.243 27.0793 41.4237 27.2613 41.4237 27.4736V35.2991L42.5978 36.2394V36.0574V26.2907V10.6094H6.86021V26.2907V36.482V36.8763H7.25161H20.3785H29.0796H33.2043L31.5785 35.6934H30.2839V35.7237ZM19.6258 35.2991C19.6258 35.5114 19.4452 35.6934 19.2344 35.6934H8.45591C8.24516 35.6934 8.06452 35.5114 8.06452 35.2991V27.5039C8.06452 27.2916 8.24516 27.1096 8.45591 27.1096H19.1742C19.4151 27.1096 19.5957 27.2916 19.5957 27.5343V35.2991H19.6258Z" fill="#C8B288"/>
<path d="M5.5957 40.1825C5.38495 40.1825 5.2043 40.0005 5.2043 39.7882V8.60756C5.2043 8.39524 5.38495 8.21325 5.5957 8.21325H44.4344C44.6452 8.21325 44.8258 8.39524 44.8258 8.60756V37.847C45.3075 38.3323 45.729 38.6659 46 38.9692C46 38.9389 46 38.9086 46 38.9086V8.60756C46 7.72795 45.2774 7 44.4043 7H5.5957C4.72258 7 4 7.72795 4 8.60756V39.7579C4 40.6375 4.72258 41.3654 5.5957 41.3654H39.286L37.6602 40.1825H5.5957Z" fill="#C8B288"/>
</g>
<defs>
<clipPath id="clip0_521_1178">
<rect width="42" height="35.7" fill="white" transform="translate(4 7)"/>
</clipPath>
</defs>
</svg>
