<svg width="48" height="48" viewBox="0 0 48 48" fill="none" xmlns="http://www.w3.org/2000/svg">
<g clip-path="url(#clip0_300_840)">
<path d="M43.3503 4H4.64972C4.29046 4 4 4.27667 4 4.61886C4 4.96105 4.29046 5.23771 4.64972 5.23771H23.3159V11.5865H18.2939C17.4607 11.5865 16.7804 12.2344 16.7804 13.028V16.3844C16.7804 16.6028 16.8339 16.8067 16.9257 16.9887C16.8951 17.0397 16.8722 17.0906 16.8492 17.1489L11.0399 30.5526C10.8488 30.9967 10.9024 31.5064 11.1852 31.8995C11.468 32.3 11.9343 32.5402 12.4464 32.5402H35.5536C36.0581 32.5402 36.532 32.3 36.8148 31.8995C37.0977 31.4991 37.1512 30.9967 36.9601 30.5453L31.1661 17.1416C31.1431 17.0834 31.1126 17.0324 31.082 16.9814C31.1737 16.7994 31.2272 16.5956 31.2272 16.3771V13.028C31.2272 12.2344 30.5469 11.5865 29.7137 11.5865H24.6918V5.23771H43.3579C43.7172 5.23771 44.0076 4.96105 44.0076 4.61886C44 4.27667 43.7095 4 43.3503 4ZM35.76 31.0186C35.7982 31.1059 35.76 31.1787 35.7371 31.2151C35.7141 31.2515 35.6606 31.3098 35.5536 31.3098H12.4464C12.347 31.3098 12.2935 31.2515 12.2629 31.2151C12.24 31.1787 12.2018 31.1132 12.24 31.0258L17.9652 17.7969C18.0722 17.8187 18.1792 17.8333 18.2863 17.8333H29.7061C29.8208 17.8333 29.9278 17.8187 30.0271 17.7969L35.76 31.0186ZM29.9278 13.028V16.2534C29.8743 16.2461 29.8208 16.2461 29.7596 16.2461H18.2404C18.1869 16.2461 18.1257 16.2534 18.0722 16.2534V13.028C18.0722 12.9188 18.1716 12.8242 18.2863 12.8242H29.7061C29.8284 12.8242 29.9278 12.9188 29.9278 13.028Z" fill="#C8B288"/>
<path d="M24.0038 35.9475C23.6216 35.9475 23.3159 36.2387 23.3159 36.6028V43.3447C23.3159 43.7087 23.6216 43.9999 24.0038 43.9999C24.386 43.9999 24.6918 43.7087 24.6918 43.3447V36.6028C24.6918 36.246 24.3784 35.9475 24.0038 35.9475Z" fill="#C8B288"/>
<path d="M13.8146 36.3334C13.4707 36.1805 13.0579 36.3189 12.8974 36.6465L9.87809 42.7404C9.71757 43.068 9.8628 43.4612 10.2068 43.6141C10.5507 43.767 10.9635 43.6287 11.124 43.301L14.1433 37.2071C14.3039 36.8795 14.1586 36.4863 13.8146 36.3334Z" fill="#C8B288"/>
<path d="M35.1103 36.6465C34.9497 36.3189 34.537 36.1805 34.193 36.3334C33.849 36.4863 33.7038 36.8795 33.8643 37.2071L36.8836 43.301C37.0441 43.6287 37.4569 43.767 37.8009 43.6141C38.1449 43.4612 38.2901 43.068 38.1296 42.7404L35.1103 36.6465Z" fill="#C8B288"/>
</g>
<defs>
<clipPath id="clip0_300_840">
<rect width="40" height="40" fill="white" transform="translate(4 4)"/>
</clipPath>
</defs>
</svg>
