<svg width="48" height="48" viewBox="0 0 48 48" fill="none" xmlns="http://www.w3.org/2000/svg">
<g clip-path="url(#clip0_521_1194)">
<path d="M35.731 23.694H36.5638C36.9983 23.694 37.3603 23.3261 37.3603 22.8847V17.9922C37.3603 17.5507 36.9983 17.1829 36.5638 17.1829H35.731C35.2965 17.1829 34.9345 17.5507 34.9345 17.9922V22.8847C34.9345 23.3261 35.2965 23.694 35.731 23.694ZM35.5862 17.9922C35.5862 17.9186 35.6224 17.8818 35.6948 17.8818H36.5276C36.6 17.8818 36.6362 17.9186 36.6362 17.9922V22.8847C36.6362 22.9583 36.6 22.9951 36.5276 22.9951H35.6948C35.6224 22.9951 35.5862 22.9583 35.5862 22.8847V17.9922Z" fill="#C8B288"/>
<path d="M29.7569 23.694H30.5896C31.0241 23.694 31.3862 23.3261 31.3862 22.8847V17.9922C31.3862 17.5507 31.0241 17.1829 30.5896 17.1829H29.7569C29.3224 17.1829 28.9603 17.5507 28.9603 17.9922V22.8847C28.9603 23.3261 29.3224 23.694 29.7569 23.694ZM29.6121 17.9922C29.6121 17.9186 29.6483 17.8818 29.7207 17.8818H30.5534C30.6258 17.8818 30.6621 17.9186 30.6621 17.9922V22.8847C30.6621 22.9583 30.6258 22.9951 30.5534 22.9951H29.7207C29.6483 22.9951 29.6121 22.9583 29.6121 22.8847V17.9922Z" fill="#C8B288"/>
<path d="M43.1897 6H33.5586H32.4362H22.95C21.9362 6 21.1397 6.95644 21.1397 8.17038V22.333H5.86034C5.42586 22.333 5.1 22.7009 5.1 23.1055V30.1684H4.01379C3.47069 30.1684 3 30.6467 3 31.2352V40.0271C3 40.6525 3.47069 41.1307 4.08621 41.1307H5.13621V43.0436C5.13621 43.5586 5.57069 44 6.07759 44H6.83793C7.34483 44 7.77931 43.5586 7.77931 43.0436V41.1307H19.2207V43.0436C19.2207 43.5586 19.6552 44 20.1621 44H20.9224C21.3931 44 21.7914 43.6321 21.8276 43.1539C22.1534 43.485 22.5517 43.6689 22.9862 43.6689H43.1897C44.2034 43.6689 45 42.7125 45 41.4985V8.17038C45 6.95644 44.2034 6 43.1897 6ZM22.2621 8.17038C22.2621 7.61859 22.5879 7.14037 22.95 7.14037H32.4362V32.6331H25.5207V31.2352C25.5207 30.6467 25.05 30.2052 24.5069 30.2052H23.9276V23.1055C23.9276 22.6641 23.5655 22.333 23.1672 22.333H22.2621V8.17038ZM5.96897 23.5837C5.96897 23.3998 6.11379 23.2527 6.29483 23.2527H21.1397H22.2621H22.6966C22.8776 23.2527 23.0224 23.3998 23.0224 23.5837V30.2052H22.2259H21.1034H21.031C20.9224 30.2052 20.8138 30.2052 20.7052 30.242C20.3069 30.3524 20.0534 30.7202 20.0172 31.1617C20.0172 31.1985 20.0172 31.2352 20.0172 31.2352V35.9439C20.0172 35.9806 19.981 35.9806 19.981 35.9806H8.53966C8.50345 35.9806 8.50345 35.9439 8.50345 35.9439V31.2352C8.50345 31.1985 8.50345 31.1617 8.50345 31.1617C8.46724 30.7202 8.17759 30.3892 7.81552 30.242C7.7069 30.2052 7.59828 30.2052 7.48966 30.2052H5.96897V23.5837ZM6.87414 43.0436C6.87414 43.0803 6.83793 43.0803 6.83793 43.0803H6.04138C6.00517 43.0803 6.00517 43.0436 6.00517 43.0436V41.1307H6.87414V43.0436ZM20.9224 43.0436C20.9224 43.0803 20.8862 43.0803 20.8862 43.0803H20.1259C20.0897 43.0803 20.0897 43.0436 20.0897 43.0436V41.1307H20.9586V43.0436H20.9224ZM21.1397 40.0639H4.08621C4.05 40.0639 4.05 40.0271 4.05 40.0271V31.2352H7.45345V35.9439C7.45345 36.5692 7.92414 37.0474 8.53966 37.0474H20.0172C20.6328 37.0474 21.1034 36.5324 21.1034 35.9439V31.2352H21.1759H22.2983H24.5431V32.5963V33.7367V37.636V38.7764V39.9903C24.5431 40.0271 24.5069 40.0271 24.5069 40.0271H22.3345H21.1397V40.0639ZM43.8776 41.5353C43.8776 42.0871 43.5517 42.5653 43.1897 42.5653H22.95C22.5517 42.5653 22.2621 42.0871 22.2621 41.5353V41.1307H24.4345C25.0138 41.1307 25.5207 40.6157 25.5207 40.0271V38.8132H43.8776V41.5353ZM43.8776 37.6728H25.5207V33.7367H43.8776V37.6728ZM43.8776 32.6331H33.5586V7.14037H43.1897C43.5879 7.14037 43.8776 7.61859 43.8776 8.17038V32.6331Z" fill="#C8B288"/>
</g>
<defs>
<clipPath id="clip0_521_1194">
<rect width="42" height="38" fill="white" transform="translate(3 6)"/>
</clipPath>
</defs>
</svg>
