<svg width="48" height="48" viewBox="0 0 48 48" fill="none" xmlns="http://www.w3.org/2000/svg">
<g clip-path="url(#clip0_521_1208)">
<path d="M24.332 11.5824H24.2186C24.0486 10.1002 23.4818 8.7319 22.5182 7.53467C21.5547 6.33744 20.1943 5.48228 18.7207 5.0832C18.6073 4.45609 18.0405 4 17.3603 4H15.3765C14.6397 4 14.0729 4.5131 13.9595 5.14022C12.5425 5.5963 11.2956 6.45146 10.332 7.53467C9.36843 8.67488 8.74495 10.1002 8.63159 11.5824C8.12147 11.6394 7.66803 12.0385 7.66803 12.5516V13.3498C7.66803 13.9199 8.12147 14.376 8.68827 14.376H8.97167C8.80163 14.9461 8.74495 15.5732 8.74495 16.2003C8.74495 20.3621 12.2024 23.7257 16.5101 23.7257C20.8178 23.7257 24.2753 20.3621 24.2753 16.2003C24.2753 15.5732 24.2186 14.9461 24.0486 14.376H24.2753C24.8421 14.376 25.2956 13.9199 25.2956 13.3498V12.5516C25.4089 12.0385 24.8988 11.5824 24.332 11.5824ZM18.834 11.5254V6.28043C21.1579 7.13559 22.8016 9.18798 23.1417 11.5824L18.834 11.5254ZM15.1498 5.14022C15.2065 5.0832 15.2632 5.02619 15.3765 5.02619H17.3603C17.5304 5.02619 17.6437 5.14022 17.6437 5.31125V11.2974C17.6437 11.4114 17.5871 11.5254 17.4737 11.5824H15.2632C15.2065 11.5824 15.2065 11.5254 15.1498 11.5254C15.1498 11.5254 15.1498 11.5254 15.1498 11.4684V5.14022ZM13.9595 6.28043V11.3544C13.9595 11.4114 13.9595 11.4684 13.9595 11.5824H9.7652C10.0486 9.18798 11.6923 7.13559 13.9595 6.28043ZM22.9717 16.2003C22.9717 19.621 20.081 22.4145 16.5668 22.4145C13.0526 22.4145 10.162 19.621 10.162 16.2003C10.162 15.5732 10.2753 14.9461 10.4454 14.376H22.6883C22.8583 14.9461 22.9717 15.5732 22.9717 16.2003ZM24.2753 13.3498H8.80163V12.7227H15.2632C15.3199 12.7227 15.3199 12.7227 15.3765 12.7227H17.3603C17.417 12.7227 17.417 12.7227 17.4737 12.7227H24.332V13.3498H24.2753Z" fill="#C8B288"/>
<path d="M32.3806 14.6611C29.9433 14.6611 27.9595 16.6565 27.9595 19.108C27.9595 21.5594 29.9433 23.4978 32.3806 23.4978C34.8178 23.4978 36.7449 21.5024 36.7449 19.051C36.7449 16.6565 34.7611 14.6611 32.3806 14.6611ZM32.3239 22.1866C30.6235 22.1866 29.2631 20.7613 29.2631 19.051C29.2631 17.3406 30.6802 15.9724 32.3239 15.9724C34.0243 15.9724 35.3846 17.3977 35.3846 19.051C35.3846 20.8183 34.0243 22.1866 32.3239 22.1866Z" fill="#C8B288"/>
<path d="M44 17.1694C44 17.1124 43.9433 17.0554 43.9433 16.9984C43.8866 16.8843 43.83 16.7133 43.7733 16.5993C43.4899 16.2002 43.0931 15.9722 42.583 15.9152C41.9595 15.9152 41.336 15.9152 40.7692 15.9152C40.7126 15.9152 40.6559 15.9152 40.6559 15.8581C40.5992 15.6301 40.4858 15.4591 40.3725 15.174C40.3725 15.117 40.3725 15.117 40.3725 15.06C40.5992 14.8319 40.8259 14.6039 41.0526 14.3759C41.2227 14.2048 41.4494 13.9768 41.6194 13.8058C41.9028 13.5207 42.0729 13.1216 42.0729 12.7225C42.0729 12.3235 41.9028 11.9814 41.6194 11.6393C40.8826 10.9552 40.2024 10.2141 39.579 9.58695C38.9555 8.95984 38.1053 8.95984 37.4818 9.58695C37.085 9.98603 36.6316 10.3851 36.2348 10.8412C36.1781 10.8982 36.1781 10.8982 36.1215 10.8412C35.8947 10.7272 35.668 10.6702 35.4413 10.5561C35.3846 10.5561 35.3846 10.4991 35.3846 10.4421C35.3846 9.98603 35.3846 9.52994 35.3846 9.07386V8.73179C35.3846 7.93364 34.9879 7.42054 34.251 7.24951H30.6802C29.9433 7.47755 29.5466 7.99065 29.5466 8.73179V8.90282C29.5466 9.41592 29.5466 9.92902 29.5466 10.4421C29.5466 10.5561 29.5466 10.5561 29.4332 10.6131C29.2065 10.6702 29.0364 10.7842 28.8097 10.8412C28.753 10.8982 28.6964 10.8982 28.6397 10.7842C28.1862 10.3281 27.7895 9.92902 27.3927 9.52994C26.8259 8.95984 25.919 8.95984 25.3522 9.52994L25.0121 9.87201L25.0688 9.92902C25.3522 10.3281 25.5789 10.6702 25.749 11.0692L25.8057 11.1262L26.0324 10.8982C26.1458 10.7842 26.2591 10.6702 26.3725 10.5561C26.4292 10.4991 26.4292 10.4991 26.4292 10.4991C26.4292 10.4991 26.4858 10.4991 26.4858 10.5561C27.0526 11.1262 27.5628 11.6964 28.1296 12.2095C28.413 12.4945 28.6964 12.5515 29.0364 12.3235C29.4899 12.0954 29.9433 11.8674 30.4534 11.7534C30.8502 11.6393 31.0202 11.4113 31.0202 10.9552C31.0202 10.2141 31.0202 9.47293 31.0202 8.67478V8.56076C31.0202 8.56076 31.0769 8.56076 31.1336 8.56076C31.4737 8.56076 31.8138 8.56076 32.1538 8.56076H32.5506H32.9474C33.2875 8.56076 33.6275 8.56076 34.0243 8.56076H34.1377C34.1377 8.56076 34.1377 8.61777 34.1377 8.67478C34.1377 9.07386 34.1377 9.47293 34.1377 9.87201C34.1377 10.2711 34.1377 10.6131 34.1377 11.0122C34.1377 11.3543 34.3077 11.6393 34.6478 11.7534C35.1579 11.9244 35.668 12.0954 36.1215 12.3805C36.4049 12.5515 36.7449 12.4945 36.9717 12.2665C37.4818 11.7534 38.0486 11.1833 38.5587 10.6702C38.6154 10.6131 38.6721 10.5561 38.6721 10.5561C38.6721 10.5561 38.7287 10.6131 38.7854 10.6702L39.2956 11.1833C39.8057 11.6964 40.3158 12.2095 40.7692 12.6655C40.8259 12.7225 40.8259 12.7225 40.8259 12.7225C40.8259 12.7225 40.8259 12.7796 40.7692 12.7796C40.3158 13.2356 39.919 13.6347 39.4656 14.0908L39.1255 14.4329C38.8421 14.7179 38.7854 15.003 39.0121 15.345C39.2389 15.8011 39.4656 16.2572 39.579 16.7703C39.6923 17.1124 39.919 17.3404 40.3158 17.3404C41.0526 17.3404 41.8462 17.3404 42.583 17.3404C42.6397 17.3404 42.6964 17.3404 42.6964 17.3404C42.6964 17.3404 42.6964 17.3974 42.6964 17.4544C42.6964 18.4236 42.6964 19.3928 42.6964 20.362C42.6964 20.419 42.6964 20.476 42.6964 20.476C42.6964 20.476 42.6397 20.476 42.583 20.476H41.8462C41.336 20.476 40.8259 20.476 40.3158 20.476C39.919 20.476 39.6923 20.647 39.579 21.0461C39.4089 21.5592 39.2389 22.0153 39.0121 22.4714C38.8421 22.7564 38.8988 23.0985 39.1255 23.3266C39.4656 23.6686 39.8624 24.0677 40.2024 24.4098L40.7126 24.9229C40.7692 24.9799 40.7692 24.9799 40.7692 25.0369C40.7692 25.0369 40.7126 25.0939 40.7126 25.1509L40.0891 25.664C39.5789 26.1771 39.0688 26.6902 38.5587 27.2033C38.502 27.2603 38.502 27.2603 38.502 27.2603C38.502 27.2603 38.4453 27.2603 38.4453 27.2033C38.1619 26.9182 37.8219 26.5762 37.5385 26.2911C37.3117 26.0631 37.085 25.835 36.8583 25.607C36.5749 25.3219 36.2915 25.2649 35.8947 25.436C35.498 25.607 35.0445 25.835 34.5344 26.0061C34.1377 26.1771 33.9676 26.4051 33.9676 26.8042C33.9676 27.4883 33.9676 28.1725 33.9676 28.8566V29.0846C33.9676 29.1417 33.9676 29.1987 33.9676 29.1987C33.9676 29.1987 33.9109 29.1987 33.8543 29.1987C32.8907 29.1987 31.9271 29.1987 30.9636 29.1987C30.9069 29.1987 30.8502 29.1987 30.8502 29.1987C30.8502 29.1987 30.8502 29.1417 30.8502 29.0846C30.8502 28.3435 30.8502 27.6024 30.8502 26.8042C30.8502 26.4051 30.6802 26.1771 30.2834 26.0631C29.7733 25.892 29.3198 25.721 28.8664 25.436C28.583 25.2649 28.2996 25.3219 28.0729 25.493L26.3725 27.2033L27.5061 28.0584L27.6761 27.8874C28.0162 27.5454 28.2996 27.2603 28.6397 26.9182C28.6964 26.8612 28.6964 26.8612 28.753 26.9182C28.9231 27.0323 29.1498 27.0893 29.3765 27.2033C29.4899 27.2603 29.4899 27.2603 29.4899 27.3743C29.4899 28.0584 29.4899 28.6856 29.4899 29.1987C29.4899 29.7688 29.8866 30.2819 30.4534 30.4529C30.5101 30.4529 30.5668 30.5099 30.6235 30.5099H30.6802H34.1943C34.251 30.5099 34.3077 30.4529 34.3644 30.4529C34.4777 30.3959 34.6478 30.3389 34.7611 30.2819C35.2146 29.9968 35.4413 29.5977 35.4413 29.0276C35.4413 28.3435 35.4413 27.7734 35.4413 27.2033C35.4413 27.1463 35.4413 27.0893 35.498 27.0893C35.7247 26.9752 35.9514 26.9182 36.1781 26.8042C36.2348 26.8042 36.2348 26.8042 36.2915 26.8042C36.5749 27.0893 36.8016 27.3173 37.085 27.6024C37.2551 27.7734 37.4251 27.9444 37.5951 28.1155C38.2186 28.7426 39.0688 28.7426 39.6923 28.1155C40.4858 27.3173 41.166 26.6332 41.7895 26.0061C42.0729 25.721 42.2429 25.3219 42.2429 24.9799C42.2429 24.5808 42.0729 24.2387 41.7895 23.8967C41.5628 23.6686 41.3927 23.4976 41.166 23.2695C40.9393 23.0415 40.7126 22.8135 40.5425 22.6424C40.4858 22.5854 40.4858 22.5854 40.5425 22.5284C40.6559 22.3004 40.7692 22.0723 40.8259 21.8443C40.8259 21.7873 40.8826 21.7873 40.9393 21.7873C41.3927 21.7873 41.8462 21.7873 42.2996 21.7873H42.6397C43.4332 21.7873 43.9433 21.3882 44.17 20.59L44 17.1694Z" fill="#C8B288"/>
<path d="M27.5628 29.5978C27.1093 29.0847 26.5992 28.6286 26.0891 28.1725C24.2753 26.7473 21.8947 25.8921 19.3441 25.8921H13.9028C12.3158 25.8921 10.8421 26.2342 9.48178 26.7473C7.21457 28.0585 5.34413 29.9969 4.04049 32.3343C2.73684 34.7288 2 37.3513 2 40.2018V40.4298C2 40.7149 2.22672 40.9429 2.51012 40.9429H2.79352C3.07692 40.9429 3.30364 40.7149 3.30364 40.4298V40.2018C3.30364 38.6625 3.53036 37.1232 3.98381 35.6979C4.32389 34.7288 4.72065 33.7596 5.23077 32.9044C6.53441 30.681 8.46154 28.8566 10.7287 27.6594C11.6923 27.3174 12.7692 27.1463 13.8462 27.1463H19.2874C20.9879 27.1463 22.5749 27.5454 23.8785 28.2865C25.0121 29.0277 26.0324 29.9399 26.8826 30.966C28.0162 32.2773 28.8664 33.8736 29.4332 35.5839C29.9433 37.0092 30.17 38.6055 30.17 40.2018V40.4298C30.17 40.7149 30.3968 40.9429 30.6802 40.9429H30.9636C31.247 40.9429 31.4737 40.7149 31.4737 40.4298V40.2018C31.587 36.097 30.0567 32.3913 27.5628 29.5978Z" fill="#C8B288"/>
</g>
<defs>
<clipPath id="clip0_521_1208">
<rect width="42" height="37" fill="white" transform="translate(2 4)"/>
</clipPath>
</defs>
</svg>
