<svg width="48" height="48" viewBox="0 0 48 48" fill="none" xmlns="http://www.w3.org/2000/svg">
<path d="M12.6014 42.6171V12.5909H42.6154C43.3776 12.5909 44 11.9693 44 11.208V5.38292C44 4.62162 43.3776 4 42.6154 4H5.38462C4.62238 4 4 4.62162 4 5.38292V12.5909V42.6171C4 43.3784 4.62238 44 5.38462 44H11.2098C11.979 44 12.6014 43.3784 12.6014 42.6171ZM42.8112 5.38292V11.201C42.8112 11.3127 42.7203 11.3965 42.6154 11.3965H34.1189V8.8542H32.9301V11.4035H23.5594V8.8542H22.3706V11.4035H12.6014V5.18736H42.6154C42.7203 5.18736 42.8112 5.27816 42.8112 5.38292ZM5.18881 5.43181C5.18881 5.32006 5.27972 5.23625 5.38462 5.23625H11.4126V11.4035H5.18881V5.43181ZM5.18881 12.5909H11.4126V22.3971H8.86014V23.5844H11.4126V32.9436H8.86014V34.131H11.4126V42.6171C11.4126 42.7288 11.3217 42.8126 11.2168 42.8126H5.38462C5.27273 42.8126 5.18881 42.7218 5.18881 42.6171V12.5909Z" fill="#C8B288"/>
<path d="M31.5385 43.595H42.3147H42.4056C43.1468 43.595 43.7482 42.9943 43.7482 42.254V42.1632V26.3504V26.0151C43.7482 25.6659 43.6154 25.3306 43.3706 25.0792L37.9161 19.4637C37.6643 19.2053 37.3147 19.0586 36.951 19.0586H24.3007C23.9021 19.0586 23.5175 19.2123 23.2308 19.4846L17.3357 25.0582C17.0699 25.3097 16.9161 25.6659 16.9161 26.0291V42.254C16.9161 42.9943 17.5175 43.595 18.2587 43.595H31.5385ZM31.5385 42.4076C31.4056 42.4076 31.3007 42.3029 31.3007 42.1702V26.2246C31.3007 26.1618 31.3287 26.0989 31.3706 26.057L36.7762 20.672C36.8392 20.6091 36.9091 20.6022 36.944 20.6022C36.979 20.6022 37.0559 20.6091 37.1119 20.672L42.4895 26.1827C42.5315 26.2246 42.5594 26.2875 42.5594 26.3504V42.1702C42.5594 42.3029 42.4545 42.4076 42.3217 42.4076H31.5385ZM18.1049 42.261V26.0291C18.1049 25.9872 18.1189 25.9453 18.1538 25.9173L24.0489 20.3437C24.1189 20.2809 24.2098 20.239 24.3007 20.239H35.5105L30.5245 25.2049C30.2517 25.4773 30.1049 25.8335 30.1049 26.2177V42.1632C30.1049 42.247 30.1119 42.3238 30.1259 42.4007H18.2517C18.1678 42.4076 18.1049 42.3448 18.1049 42.261Z" fill="#C8B288"/>
<path d="M38.0629 29.0254H34.7483V31.2464H38.0629V29.0254Z" fill="#C8B288"/>
<path d="M38.0629 35.2415H34.7483V37.4625H38.0629V35.2415Z" fill="#C8B288"/>
</svg>
