<svg width="447" height="117" viewBox="0 0 447 117" fill="none" xmlns="http://www.w3.org/2000/svg">
<path opacity="0.1" d="M143.568 12.608C143.568 13.184 143.328 13.76 142.848 14.336C142.368 14.912 141.84 15.2 141.264 15.2C140.592 15.2 139.872 15.152 139.104 15.056C138.336 14.96 137.568 14.912 136.8 14.912C135.36 14.912 134.208 15.44 133.344 16.496C132.576 17.552 131.952 18.8 131.472 20.24C130.992 21.68 130.608 22.976 130.32 24.128C126.768 39.488 123.36 54.896 120.096 70.352C116.928 85.712 113.52 101.072 109.872 116.432H95.76C92.208 103.76 88.512 91.088 84.672 78.416C80.832 65.744 76.944 53.12 73.008 40.544C68.784 53.216 64.56 65.936 60.336 78.704C56.112 91.376 51.744 104 47.232 116.576L34.416 116.432C33.36 112.208 32.4 107.984 31.536 103.76C30.768 99.44 29.904 95.168 28.944 90.944L18.288 42.56C17.52 38.912 16.704 35.216 15.84 31.472C15.072 27.728 14.16 24.032 13.104 20.384C12.432 17.6 11.28 16.064 9.648 15.776C8.016 15.488 6.048 15.344 3.744 15.344C1.92 15.344 1.008 14.336 1.008 12.32C1.008 10.784 1.824 10.016 3.456 10.016C4.512 10.016 5.568 10.064 6.624 10.16C7.776 10.256 8.88 10.352 9.936 10.448C12.144 10.544 14.304 10.592 16.416 10.592C18.624 10.592 20.832 10.592 23.04 10.592H31.824C33.456 10.592 35.04 10.544 36.576 10.448C38.208 10.256 39.84 10.16 41.472 10.16C42.144 10.16 42.72 10.4 43.2 10.88C43.776 11.264 44.064 11.84 44.064 12.608C44.064 13.664 43.488 14.336 42.336 14.624C41.28 14.912 40.032 15.008 38.592 14.912C37.248 14.816 36.144 14.768 35.28 14.768C34.032 14.768 32.928 14.96 31.968 15.344C31.104 15.632 30.672 16.592 30.672 18.224C30.672 18.608 30.672 18.992 30.672 19.376C30.768 19.76 30.864 20.192 30.96 20.672C31.824 25.184 32.688 29.696 33.552 34.208C34.416 38.72 35.28 43.232 36.144 47.744C37.776 56 39.456 64.304 41.184 72.656C42.912 80.912 44.544 89.216 46.08 97.568C49.44 87.776 52.704 77.984 55.872 68.192C59.04 58.304 62.256 48.416 65.52 38.528C66.864 34.4 68.112 30.32 69.264 26.288C70.512 22.16 71.856 18.032 73.296 13.904C73.68 12.752 74.112 11.984 74.592 11.6C75.168 11.216 76.08 11.024 77.328 11.024C78.384 11.024 79.248 11.168 79.92 11.456C80.688 11.744 81.264 12.416 81.648 13.472C82.32 14.912 82.848 16.496 83.232 18.224C83.712 19.856 84.144 21.44 84.528 22.976C85.392 26.24 86.256 29.456 87.12 32.624C88.08 35.792 89.04 38.96 90 42.128C92.784 51.536 95.568 60.992 98.352 70.496C101.136 79.904 103.872 89.312 106.56 98.72C109.248 87.008 111.888 74.816 114.48 62.144C117.168 49.376 119.52 36.848 121.536 24.56C121.728 23.216 121.872 21.968 121.968 20.816C122.16 19.568 122.256 18.32 122.256 17.072C122.256 15.824 121.776 15.056 120.816 14.768C119.856 14.384 118.896 14.192 117.936 14.192C116.688 14.192 115.392 14.288 114.048 14.48C112.8 14.576 111.552 14.624 110.304 14.624C108.768 14.624 108 13.808 108 12.176C108 11.6 108.24 11.072 108.72 10.592C109.296 10.112 109.872 9.87199 110.448 9.87199C111.216 9.87199 111.936 9.91999 112.608 10.016C113.376 10.016 114.096 10.064 114.768 10.16C117.168 10.16 119.52 10.208 121.824 10.304C124.224 10.304 126.624 10.304 129.024 10.304C131.04 10.304 133.104 10.256 135.216 10.16C137.328 9.96799 139.44 9.87199 141.552 9.87199C142.128 9.87199 142.608 10.208 142.992 10.88C143.376 11.552 143.568 12.128 143.568 12.608ZM210.96 77.696C210.96 73.76 210.672 69.728 210.096 65.6C209.52 61.472 208.416 57.632 206.784 54.08C205.152 50.528 202.8 47.696 199.728 45.584C196.752 43.376 192.768 42.272 187.776 42.272C183.168 42.272 179.376 43.424 176.4 45.728C173.52 48.032 171.312 51.056 169.776 54.8C168.24 58.448 167.136 62.336 166.464 66.464C165.888 70.496 165.6 74.336 165.6 77.984C165.6 82.016 165.888 86.048 166.464 90.08C167.136 94.016 168.288 97.664 169.92 101.024C171.552 104.384 173.904 107.072 176.976 109.088C180.048 111.104 184.032 112.112 188.928 112.112C193.728 112.112 197.568 111.056 200.448 108.944C203.424 106.832 205.632 104.048 207.072 100.592C208.608 97.136 209.616 93.392 210.096 89.36C210.672 85.328 210.96 81.44 210.96 77.696ZM227.376 78.272C227.376 85.568 225.6 92.096 222.048 97.856C218.592 103.616 213.888 108.176 207.936 111.536C202.08 114.8 195.504 116.432 188.208 116.432C181.008 116.432 174.528 114.8 168.768 111.536C163.008 108.176 158.4 103.616 154.944 97.856C151.584 92.096 149.904 85.664 149.904 78.56C149.904 71.168 151.584 64.4 154.944 58.256C158.304 52.112 162.912 47.216 168.768 43.568C174.624 39.824 181.296 37.952 188.784 37.952C197.04 37.952 204 39.632 209.664 42.992C215.424 46.352 219.792 51.056 222.768 57.104C225.84 63.152 227.376 70.208 227.376 78.272ZM296.657 51.488C296.657 52.832 296.225 53.888 295.361 54.656C294.497 55.424 293.393 55.808 292.049 55.808C290.321 55.808 289.073 55.328 288.305 54.368C287.633 53.408 287.057 52.304 286.577 51.056C286.193 49.808 285.617 48.704 284.849 47.744C284.177 46.784 282.929 46.304 281.105 46.304C279.281 46.304 277.313 47.12 275.201 48.752C273.185 50.384 271.265 52.4 269.441 54.8C267.617 57.2 266.081 59.6 264.833 62C263.681 64.4 263.057 66.368 262.961 67.904C262.865 69.92 262.817 71.984 262.817 74.096C262.817 76.112 262.817 78.128 262.817 80.144C262.817 84.752 262.817 89.408 262.817 94.112C262.913 98.72 262.961 103.328 262.961 107.936C262.961 109.184 263.537 110.144 264.689 110.816C265.841 111.392 266.945 111.68 268.001 111.68C268.961 111.68 269.873 111.632 270.737 111.536C271.601 111.44 272.513 111.392 273.473 111.392C273.953 111.392 274.385 111.632 274.769 112.112C275.153 112.592 275.345 113.024 275.345 113.408C275.345 113.984 275.105 114.608 274.625 115.28C274.241 115.856 273.761 116.144 273.185 116.144C270.113 116.144 267.041 116.096 263.969 116C260.897 115.808 257.825 115.712 254.753 115.712C251.777 115.712 248.801 115.76 245.825 115.856C242.849 115.952 239.825 116 236.753 116C236.273 116 235.841 115.712 235.457 115.136C235.169 114.56 235.025 114.08 235.025 113.696C235.025 112.448 235.505 111.728 236.465 111.536C237.521 111.344 238.673 111.296 239.921 111.392C241.169 111.488 242.321 111.536 243.377 111.536C246.065 111.536 247.457 110.288 247.553 107.792C247.841 103.376 247.985 98.96 247.985 94.544C247.985 90.128 247.985 85.712 247.985 81.296V70.64C247.985 67.28 247.937 63.92 247.841 60.56C247.841 57.2 247.697 53.84 247.409 50.48C247.313 48.848 246.881 47.648 246.113 46.88C245.345 46.016 244.097 45.584 242.369 45.584C241.601 45.584 240.833 45.68 240.065 45.872C239.297 46.064 238.529 46.16 237.761 46.16C236.225 46.16 235.457 45.488 235.457 44.144C235.457 43.28 235.889 42.704 236.753 42.416C237.713 42.032 238.721 41.792 239.777 41.696C240.929 41.6 241.985 41.456 242.945 41.264C246.785 40.688 250.481 39.968 254.033 39.104C254.321 39.104 255.137 38.96 256.481 38.672C257.825 38.288 258.545 38.096 258.641 38.096C259.985 38.096 260.993 38.672 261.665 39.824C261.857 40.112 262.001 41.024 262.097 42.56C262.193 44.096 262.241 45.872 262.241 47.888C262.241 49.808 262.241 51.632 262.241 53.36C262.241 54.992 262.241 56.096 262.241 56.672C264.353 53.408 266.705 50.336 269.297 47.456C271.985 44.576 274.961 42.224 278.225 40.4C281.585 38.576 285.329 37.664 289.457 37.664C292.145 37.664 293.825 38.384 294.497 39.824C295.265 41.168 295.793 42.944 296.081 45.152C296.273 46.112 296.417 47.168 296.513 48.32C296.609 49.376 296.657 50.432 296.657 51.488ZM382.673 113.552C382.673 114.32 381.905 114.896 380.369 115.28C378.833 115.664 377.201 115.904 375.473 116C373.745 116 372.545 116 371.873 116C368.609 116 365.873 115.808 363.665 115.424C361.553 114.944 359.537 113.216 357.617 110.24C353.489 103.712 349.409 97.136 345.377 90.512C341.441 83.888 337.409 77.264 333.281 70.64L325.937 75.968V108.8C325.937 109.664 326.177 110.432 326.657 111.104C327.137 111.776 327.857 112.112 328.817 112.112C329.777 112.112 330.689 112.064 331.553 111.968C332.513 111.872 333.473 111.824 334.433 111.824C335.009 111.824 335.537 111.968 336.017 112.256C336.593 112.544 336.881 113.072 336.881 113.84C336.881 114.512 336.593 115.04 336.017 115.424C335.537 115.712 335.009 115.856 334.433 115.856C330.977 115.856 327.521 115.808 324.065 115.712C320.705 115.616 317.345 115.568 313.985 115.568C312.161 115.568 310.337 115.664 308.513 115.856C306.689 115.952 304.865 116 303.041 116C302.561 116 302.129 115.76 301.745 115.28C301.361 114.704 301.169 114.224 301.169 113.84C301.169 112.976 301.601 112.448 302.465 112.256C303.329 111.968 304.289 111.872 305.345 111.968C306.401 112.064 307.169 112.112 307.649 112.112C309.089 112.112 310.097 111.968 310.673 111.68C311.345 111.296 311.681 110.336 311.681 108.8V17.072C311.681 15.44 311.441 14.144 310.961 13.184C310.577 12.128 309.425 11.6 307.505 11.6C306.545 11.6 305.537 11.696 304.481 11.888C303.425 12.08 302.369 12.176 301.313 12.176C300.257 12.176 299.729 11.648 299.729 10.592C299.729 9.92 299.825 9.488 300.017 9.29599C300.305 9.10399 300.785 8.96 301.457 8.864C303.281 8.48 305.105 8.19199 306.929 7.99999C308.849 7.712 310.721 7.376 312.545 6.992C313.313 6.79999 314.561 6.55999 316.289 6.272C318.017 5.888 319.697 5.55199 321.329 5.26399C322.961 4.87999 324.017 4.68799 324.497 4.68799C325.457 4.68799 325.937 5.07199 325.937 5.83999V70.352C330.449 66.992 334.865 63.488 339.185 59.84C343.505 56.192 347.729 52.496 351.857 48.752C353.393 47.312 354.881 45.824 356.321 44.288C357.761 42.752 359.105 41.12 360.353 39.392C360.833 38.912 361.313 38.624 361.793 38.528C362.273 38.336 362.849 38.24 363.521 38.24C364.577 38.24 365.537 38.288 366.401 38.384C367.361 38.384 368.321 38.384 369.281 38.384C370.625 38.384 371.921 38.384 373.169 38.384C374.417 38.288 375.665 38.24 376.913 38.24C377.777 38.24 378.401 38.384 378.785 38.672C379.169 38.864 379.361 39.44 379.361 40.4C379.361 41.36 378.737 41.936 377.489 42.128C376.241 42.32 374.801 42.512 373.169 42.704C371.633 42.8 370.241 43.328 368.993 44.288C364.769 47.36 360.545 50.528 356.321 53.792C352.193 56.96 348.065 60.224 343.937 63.584C345.569 66.56 347.297 69.488 349.121 72.368C351.041 75.248 352.913 78.08 354.737 80.864C357.329 84.704 359.873 88.592 362.369 92.528C364.961 96.368 367.601 100.16 370.289 103.904C371.441 105.536 372.977 107.168 374.897 108.8C376.817 110.432 378.785 111.488 380.801 111.968C381.281 112.064 381.713 112.208 382.097 112.4C382.481 112.496 382.673 112.88 382.673 113.552ZM442.548 94.688C442.548 99.008 441.588 102.56 439.668 105.344C437.748 108.128 435.204 110.288 432.036 111.824C428.964 113.36 425.604 114.464 421.956 115.136C418.308 115.712 414.708 116 411.156 116C409.332 116 407.508 115.856 405.684 115.568C403.956 115.28 402.228 114.992 400.5 114.704C399.06 114.416 397.572 114.224 396.036 114.128C394.596 114.032 393.204 113.792 391.86 113.408C391.188 111.104 390.564 108.8 389.988 106.496C389.508 104.096 388.884 101.792 388.116 99.584C388.02 99.104 387.732 98.288 387.252 97.136C386.868 95.888 386.676 95.072 386.676 94.688C386.676 93.728 387.108 93.104 387.972 92.816C388.932 92.528 389.748 92.384 390.42 92.384C390.9 92.384 391.332 92.576 391.716 92.96C392.196 93.344 392.532 93.728 392.724 94.112C393.204 94.784 393.588 95.504 393.876 96.272C394.164 97.04 394.5 97.808 394.884 98.576C395.556 99.728 396.18 100.88 396.756 102.032C397.428 103.088 398.244 104.048 399.204 104.912C400.932 106.64 402.948 108.08 405.252 109.232C407.652 110.288 410.052 110.816 412.452 110.816C416.964 110.816 420.66 109.952 423.54 108.224C426.516 106.4 428.004 102.992 428.004 98C428.004 95.024 427.044 92.528 425.124 90.512C423.3 88.4 420.9 86.576 417.924 85.04C414.948 83.408 411.78 81.872 408.42 80.432C405.156 78.896 402.036 77.216 399.06 75.392C396.084 73.472 393.636 71.216 391.716 68.624C389.892 65.936 388.98 62.672 388.98 58.832C388.98 54.128 390.228 50.24 392.724 47.168C395.22 44.096 398.388 41.84 402.228 40.4C406.164 38.864 410.196 38.096 414.324 38.096C417.108 38.096 419.604 38.432 421.812 39.104C424.116 39.68 426.564 40.448 429.156 41.408C430.308 41.792 431.652 41.984 433.188 41.984C433.668 41.984 434.148 41.984 434.628 41.984C435.204 41.984 435.732 41.936 436.212 41.84C436.5 44.336 436.836 46.928 437.22 49.616C437.7 52.208 437.94 54.752 437.94 57.248C437.94 58.208 437.652 59.072 437.076 59.84C436.5 60.512 435.684 60.848 434.628 60.848C432.996 60.848 431.892 60.176 431.316 58.832C430.932 57.968 430.596 57.056 430.308 56.096C430.116 55.136 429.876 54.176 429.588 53.216C428.436 50.048 426.372 47.456 423.396 45.44C420.42 43.424 417.252 42.416 413.892 42.416C409.38 42.416 406.212 43.808 404.388 46.592C402.564 49.28 401.652 52.688 401.652 56.816C401.652 58.352 401.988 59.744 402.66 60.992C403.332 62.24 404.196 63.392 405.252 64.448C406.212 65.408 407.268 66.224 408.42 66.896C409.572 67.568 410.772 68.192 412.02 68.768C414.804 70.016 417.924 71.408 421.38 72.944C424.932 74.384 428.292 76.064 431.46 77.984C434.724 79.904 437.364 82.256 439.38 85.04C441.492 87.728 442.548 90.944 442.548 94.688Z" fill="#F4F3F1"/>
</svg>
